<svg id="visual" viewBox="0 0 900 600" width="900" height="600" xmlns="http://www.w3.org/2000/svg" xmlns:xlink="http://www.w3.org/1999/xlink" version="1.1"><rect width="900" height="600" fill="#931F1F"></rect><g><g transform="translate(283 255)"><path d="M51.1 -14.4C58.5 6.3 51.6 33.9 32.8 48.3C14 62.6 -16.6 63.8 -36.8 49.4C-56.9 35 -66.7 5.1 -58.8 -16.2C-50.9 -37.6 -25.5 -50.3 -1.8 -49.7C21.8 -49.1 43.6 -35.2 51.1 -14.4Z" stroke="#F7760E" fill="none" stroke-width="20"></path></g><g transform="translate(240 442)"><path d="M44.7 -15.4C50.2 2.3 41.5 23.7 25.6 35.3C9.6 47 -13.6 48.8 -27.4 38.5C-41.3 28.3 -45.8 5.9 -39.7 -12.7C-33.6 -31.3 -16.8 -46.2 1.4 -46.7C19.6 -47.1 39.3 -33.1 44.7 -15.4Z" stroke="#F7760E" fill="none" stroke-width="20"></path></g><g transform="translate(98 87)"><path d="M33.4 -9.9C38 3.5 32.9 20.9 21.2 29.5C9.5 38 -8.8 37.7 -20.2 29.1C-31.6 20.5 -36.1 3.6 -31.6 -9.6C-27.1 -22.8 -13.6 -32.4 0.4 -32.5C14.4 -32.6 28.7 -23.3 33.4 -9.9Z" stroke="#F7760E" fill="none" stroke-width="20"></path></g><g transform="translate(735 462)"><path d="M39.5 -13.8C44.3 1.8 36.5 20.6 22.8 30.3C9.2 39.9 -10.2 40.4 -23.3 31.1C-36.4 21.8 -43.1 2.8 -38.2 -13.1C-33.2 -29 -16.6 -41.9 0.4 -42C17.4 -42.1 34.7 -29.5 39.5 -13.8Z" stroke="#F7760E" fill="none" stroke-width="20"></path></g><g transform="translate(48 457)"><path d="M45.8 -13.7C51.3 2.1 42.2 23.8 26.7 34.5C11.3 45.1 -10.5 44.7 -24.1 34.5C-37.8 24.3 -43.4 4.2 -38 -11.4C-32.7 -27 -16.3 -38.2 1.9 -38.8C20.1 -39.4 40.3 -29.5 45.8 -13.7Z" stroke="#F7760E" fill="none" stroke-width="20"></path></g><g transform="translate(702 21)"><path d="M46.9 -15.1C52.1 0.9 41.7 22 26.1 32.6C10.4 43.2 -10.5 43.2 -24.1 33.3C-37.8 23.4 -44.1 3.5 -38.8 -12.5C-33.6 -28.5 -16.8 -40.6 2 -41.2C20.8 -41.9 41.6 -31.1 46.9 -15.1Z" stroke="#F7760E" fill="none" stroke-width="20"></path></g><g transform="translate(687 250)"><path d="M33.2 -10.9C37.8 3.5 32.9 21 21.7 28.9C10.5 36.7 -6.8 35 -17.8 26.6C-28.8 18.1 -33.3 2.9 -29.2 -10.6C-25.2 -24.2 -12.6 -36.1 0.8 -36.4C14.3 -36.7 28.5 -25.3 33.2 -10.9Z" stroke="#F7760E" fill="none" stroke-width="20"></path></g><g transform="translate(517 138)"><path d="M53.5 -15.5C60.5 4.4 51.5 31.4 32.2 45.6C13 59.9 -16.4 61.4 -34.8 48C-53.2 34.6 -60.6 6.3 -53 -14.4C-45.3 -35 -22.7 -47.9 0.3 -48C23.2 -48.1 46.4 -35.3 53.5 -15.5Z" stroke="#F7760E" fill="none" stroke-width="20"></path></g><g transform="translate(854 257)"><path d="M37.4 -12.4C42.2 2.6 35.5 21.1 22.4 30.6C9.3 40 -10.2 40.5 -22.5 31.4C-34.8 22.4 -39.8 3.9 -34.9 -11.3C-29.9 -26.5 -15 -38.4 0.7 -38.7C16.3 -38.9 32.6 -27.4 37.4 -12.4Z" stroke="#F7760E" fill="none" stroke-width="20"></path></g><g transform="translate(389 546)"><path d="M39.3 -14C44.6 3.8 38.4 24.1 24.7 34.1C10.9 44.1 -10.4 43.9 -25.9 33.2C-41.5 22.5 -51.3 1.3 -46 -16.3C-40.7 -34 -20.4 -48.1 -1.7 -47.5C16.9 -47 33.9 -31.7 39.3 -14Z" stroke="#F7760E" fill="none" stroke-width="20"></path></g><g transform="translate(441 310)"><path d="M35.4 -12.6C39.8 2.1 33.2 19.3 21.1 27.8C9.1 36.2 -8.4 35.9 -20 27.5C-31.6 19.1 -37.2 2.6 -32.9 -12C-28.6 -26.6 -14.3 -39.3 0.6 -39.5C15.5 -39.7 31 -27.4 35.4 -12.6Z" stroke="#F7760E" fill="none" stroke-width="20"></path></g><g transform="translate(555 439)"><path d="M47.6 -15.2C53.1 1.7 43.3 23.9 25.7 37.1C8.1 50.3 -17.3 54.5 -32.3 43.7C-47.4 32.9 -52.2 7.2 -45.1 -11.8C-38 -30.8 -19 -43.2 1 -43.5C21 -43.8 42 -32.1 47.6 -15.2Z" stroke="#F7760E" fill="none" stroke-width="20"></path></g><g transform="translate(367 24)"><path d="M32.3 -11.1C36.9 3.7 32.3 20.9 20.3 30.1C8.4 39.2 -10.9 40.4 -24 31.2C-37.2 22.1 -44.2 2.7 -39.2 -12.6C-34.2 -28 -17.1 -39.3 -1.6 -38.8C13.8 -38.3 27.7 -25.9 32.3 -11.1Z" stroke="#F7760E" fill="none" stroke-width="20"></path></g><g transform="translate(893 522)"><path d="M37.4 -11.2C42.3 3.1 36 22 22.8 31.6C9.6 41.3 -10.4 41.6 -23.4 32.2C-36.4 22.8 -42.3 3.6 -37.2 -10.9C-32.2 -25.4 -16.1 -35.2 0.1 -35.2C16.2 -35.2 32.4 -25.5 37.4 -11.2Z" stroke="#F7760E" fill="none" stroke-width="20"></path></g><g transform="translate(101 267)"><path d="M52.6 -18.7C59.2 3.1 49.3 28.7 30.6 42.4C11.8 56.1 -15.8 57.9 -34.5 45C-53.3 32 -63.1 4.1 -55.8 -18.6C-48.6 -41.3 -24.3 -59 -0.6 -58.8C23 -58.6 46.1 -40.5 52.6 -18.7Z" stroke="#F7760E" fill="none" stroke-width="20"></path></g></g></svg>