<svg id="visual" viewBox="0 0 900 600" width="900" height="600" xmlns="http://www.w3.org/2000/svg" xmlns:xlink="http://www.w3.org/1999/xlink" version="1.1"><rect x="0" y="0" width="900" height="600" fill="#FFFFFF"></rect><defs><linearGradient id="grad1_0" x1="33.3%" y1="0%" x2="100%" y2="100%"><stop offset="20%" stop-color="#ffffff" stop-opacity="1"></stop><stop offset="80%" stop-color="#ffffff" stop-opacity="1"></stop></linearGradient></defs><defs><linearGradient id="grad2_0" x1="0%" y1="0%" x2="66.7%" y2="100%"><stop offset="20%" stop-color="#ffffff" stop-opacity="1"></stop><stop offset="80%" stop-color="#ffffff" stop-opacity="1"></stop></linearGradient></defs><g transform="translate(900, 0)"><path d="M0 351.5C-45.4 335.6 -90.8 319.6 -121.3 292.9C-151.8 266.1 -167.4 228.6 -203.6 203.6C-239.9 178.7 -296.7 166.4 -324.8 134.5C-352.9 102.7 -352.2 51.3 -351.5 0L0 0Z" fill="#F7CACA"></path></g><g transform="translate(0, 600)"><path d="M0 -351.5C53.4 -350.8 106.7 -350 130.9 -316C155 -281.9 150 -214.6 183.8 -183.8C217.7 -153.1 290.4 -159.1 324.8 -134.5C359.2 -110 355.4 -55 351.5 0L0 0Z" fill="#F7CACA"></path></g></svg>